<svg viewBox="0 0 16 16"><path fill="#828282" d="M795.2,115.2c-57-13.4-115.7-1.8-132.1,1.3c-1.2,0.1-2.5,1.3-3.6,1.6c-0.6,0.1-0.9,0.7-0.9,0.7c-16.2,4.6-28.1,19.6-28.1,37.2c0,21.1,17.1,38.4,38.5,38.4c0,0,20.8-2.8,34.8-8.3c13.9-5.6,132.1-4.2,190.7,94.3c32,71.9,14.1,119.9,11.8,127.6c0,0-7.6,18.7-7.6,37c0,21.2,17.2,34.5,38.4,34.5c17.7,0,32.6-2.4,37-32.4h0.2C1037.3,237.6,897.2,139,795.2,115.2z M735.8,489.7c-38.1-7.4-19.6-27.9-19.6-27.9s37.3-61.4-7.4-106.1c-55.4-55.3-189.9,7-189.9,7c-51.4,15.9-37.8-7.3-30.5-46.8c0-46.5-15.9-125.3-152.8-78.8C198.8,284,81.3,447.8,81.3,447.8c-81.7,108.8-70.9,193-70.9,193c20.4,185.7,218,236.7,371.6,248.8c161.7,12.7,379.8-55.6,446-196C894.3,552.9,774.1,497.4,735.8,489.7z M394.1,837.2c-160.5,7.5-290.2-72.9-290.2-179.9c0-107.1,129.8-193,290.2-200.4c160.6-7.4,290.6,58.7,290.6,165.6C684.7,729.6,554.7,830,394.1,837.2z M814.4,424.3c13,0,24.1-9.6,25.9-22.1c0.2-0.9,0.4-1.7,0.4-2.8c19.7-177.1-145.2-146.6-145.2-146.6c-14.7,0-26.4,11.8-26.4,26.6c0,14.5,11.8,26.4,26.4,26.4c118.5-26.1,92.3,92.2,92.3,92.2C787.8,412.6,799.7,424.3,814.4,424.3z M362.1,527.6c-161.4,18.9-142.8,169.9-142.8,169.9s-1.6,47.8,43.3,72.2c94.4,51.1,191.7,20.1,240.8-43.2C552.6,663,523.7,508.8,362.1,527.6z M321.4,739.5c-30.2,3.5-54.4-13.8-54.4-39c0-25.1,21.6-51.3,51.7-54.5c34.6-3.3,57.2,16.6,57.2,41.8C375.8,712.9,351.4,736.1,321.4,739.5z M416.5,658.5c-10.2,7.6-22.8,6.5-28.2-2.5c-5.6-8.9-3.5-23.2,6.8-30.7c12-8.9,24.4-6.3,29.8,2.6C430.4,637,426.5,650.7,416.5,658.5z"/></svg>
